<svg width="111" height="16" viewBox="0 0 111 16" fill="none" xmlns="http://www.w3.org/2000/svg">
<path d="M109.634 8.10088L107.189 8.10797L107.189 3.81244L102.894 3.81244L102.901 1.36696L109.634 1.36696L109.634 8.10088Z" fill="white"/>
<path d="M1 3.66971H5.11587V14.7727H7.92543V3.66971H12.0413V1.32568H1V3.66971Z" fill="white"/>
<path d="M15.4293 14.9696C17.9238 14.9696 19.6043 13.7549 19.9981 11.8837L17.4118 11.7129C17.1295 12.4812 16.4074 12.8817 15.4753 12.8817C14.077 12.8817 13.1909 11.9559 13.1909 10.4523V10.4457H20.0572V9.67752C20.0572 6.25011 17.9829 4.55611 15.3177 4.55611C12.3506 4.55611 10.4272 6.66377 10.4272 9.776C10.4272 12.9736 12.3244 14.9696 15.4293 14.9696ZM13.1909 8.71233C13.2499 7.56329 14.123 6.64407 15.3637 6.64407C16.5781 6.64407 17.4183 7.51077 17.4249 8.71233H13.1909Z" fill="white"/>
<path d="M23.833 14.9631C25.3232 14.9631 26.2881 14.313 26.7805 13.3741H26.8592V14.7727H29.5112V7.97038C29.5112 5.56726 27.4763 4.55611 25.2313 4.55611C22.8156 4.55611 21.227 5.71171 20.8397 7.55016L23.4261 7.76027C23.6164 7.09055 24.2138 6.59811 25.2181 6.59811C26.17 6.59811 26.7148 7.07742 26.7148 7.90472V7.94412C26.7148 8.59414 26.0256 8.6795 24.2729 8.85021C22.2773 9.03406 20.4852 9.70378 20.4852 11.9559C20.4852 13.9519 21.9097 14.9631 23.833 14.9631ZM24.6339 13.0327C23.774 13.0327 23.1569 12.6322 23.1569 11.864C23.1569 11.0761 23.8068 10.6887 24.7914 10.5508C25.4019 10.4654 26.3997 10.321 26.7345 10.0977V11.168C26.7345 12.2251 25.8614 13.0327 24.6339 13.0327Z" fill="white"/>
<path d="M30.7565 14.7727H33.5529V8.71889C33.5529 7.60269 34.2619 6.86074 35.194 6.86074C36.1131 6.86074 36.7301 7.49107 36.7301 8.48252V14.7727H39.4412V8.61384C39.4412 7.56986 40.0386 6.86074 41.056 6.86074C41.9488 6.86074 42.6184 7.41884 42.6184 8.54161V14.7727H45.4082V7.99008C45.4082 5.80363 44.1085 4.55611 42.2311 4.55611C40.7541 4.55611 39.6053 5.31119 39.1918 6.46679H39.0867C38.7651 5.29806 37.7345 4.55611 36.3494 4.55611C34.9905 4.55611 33.9599 5.27836 33.5398 6.46679H33.4217V4.68743H30.7565V14.7727Z" fill="white"/>
<path d="M55.0822 7.5633C54.8327 5.70514 53.336 4.55611 50.7891 4.55611C48.2093 4.55611 46.5091 5.7511 46.5156 7.69461C46.5091 9.20477 47.4609 10.1831 49.4302 10.577L51.1764 10.925C52.056 11.1023 52.4564 11.424 52.4696 11.9296C52.4564 12.5271 51.8065 12.9539 50.8285 12.9539C49.8307 12.9539 49.1677 12.5271 48.997 11.7064L46.2465 11.8508C46.5091 13.7812 48.1502 14.9696 50.8219 14.9696C53.4345 14.9696 55.3054 13.6368 55.3119 11.6473C55.3054 10.1897 54.3535 9.31639 52.3973 8.91587L50.5724 8.54818C49.6337 8.34464 49.2858 8.02291 49.2924 7.53703C49.2858 6.93297 49.9685 6.53901 50.835 6.53901C51.8065 6.53901 52.3842 7.07085 52.5221 7.72088L55.0822 7.5633Z" fill="white"/>
<path d="M58.945 8.94214C58.9516 7.64209 59.7459 6.88044 60.8881 6.88044C62.0237 6.88044 62.6933 7.60926 62.6867 8.85021V14.7727H65.4831V8.3512C65.4897 5.98748 64.098 4.55611 61.9974 4.55611C60.4679 4.55611 59.4439 5.27836 58.9844 6.46679H58.8662V1.32568H56.1486V14.7727H58.945V8.94214Z" fill="white"/>
<path d="M69.6348 14.9631C71.1249 14.9631 72.0899 14.313 72.5822 13.3741H72.661V14.7727H75.313V7.97038C75.313 5.56726 73.278 4.55611 71.033 4.55611C68.6173 4.55611 67.0287 5.71171 66.6414 7.55016L69.2278 7.76027C69.4182 7.09055 70.0155 6.59811 71.0199 6.59811C71.9717 6.59811 72.5165 7.07742 72.5165 7.90472V7.94412C72.5165 8.59414 71.8273 8.6795 70.0746 8.85021C68.079 9.03406 66.2869 9.70378 66.2869 11.9559C66.2869 13.9519 67.7114 14.9631 69.6348 14.9631ZM70.4356 13.0327C69.5757 13.0327 68.9586 12.6322 68.9586 11.864C68.9586 11.0761 69.6085 10.6887 70.5932 10.5508C71.2037 10.4654 72.2015 10.321 72.5362 10.0977V11.168C72.5362 12.2251 71.6632 13.0327 70.4356 13.0327Z" fill="white"/>
<path d="M76.5582 14.7727H79.3547V9.06689C79.3547 7.82593 80.2606 6.97236 81.4947 6.97236C81.882 6.97236 82.4137 7.03802 82.6763 7.12338V4.64147C82.4268 4.58237 82.0789 4.54298 81.7966 4.54298C80.6676 4.54298 79.742 5.19957 79.3744 6.44709H79.2693V4.68743H76.5582V14.7727Z" fill="white"/>
<path d="M87.3235 14.9696C89.818 14.9696 91.4985 13.7549 91.8923 11.8837L89.306 11.7129C89.0237 12.4812 88.3016 12.8817 87.3695 12.8817C85.9713 12.8817 85.0851 11.9559 85.0851 10.4523V10.4457H91.9514V9.67752C91.9514 6.25011 89.8771 4.55611 87.2119 4.55611C84.2448 4.55611 82.3215 6.66377 82.3215 9.776C82.3215 12.9736 84.2186 14.9696 87.3235 14.9696ZM85.0851 8.71233C85.1441 7.56329 86.0172 6.64407 87.2579 6.64407C88.4723 6.64407 89.3125 7.51077 89.3191 8.71233H85.0851Z" fill="white"/>
<path d="M101.241 7.5633C100.992 5.70514 99.4952 4.55611 96.9482 4.55611C94.3684 4.55611 92.6682 5.7511 92.6748 7.69461C92.6682 9.20477 93.6201 10.1831 95.5894 10.577L97.3355 10.925C98.2152 11.1023 98.6156 11.424 98.6287 11.9296C98.6156 12.5271 97.9657 12.9539 96.9876 12.9539C95.9898 12.9539 95.3268 12.5271 95.1561 11.7064L92.4057 11.8508C92.6682 13.7812 94.3093 14.9696 96.9811 14.9696C99.5937 14.9696 101.465 13.6368 101.471 11.6473C101.465 10.1897 100.513 9.31639 98.5565 8.91587L96.7316 8.54818C95.7929 8.34464 95.445 8.02291 95.4516 7.53703C95.445 6.93297 96.1277 6.53901 96.9942 6.53901C97.9657 6.53901 98.5434 7.07085 98.6812 7.72088L101.241 7.5633Z" fill="white"/>
</svg>
